<?xml version="1.0" ?><!DOCTYPE svg  PUBLIC '-//W3C//DTD SVG 1.1//EN'  'http://www.w3.org/Graphics/SVG/1.1/DTD/svg11.dtd'><svg height="510.653px" style="enable-background:new 0 0 513.402 510.653;" version="1.1" viewBox="0 0 513.402 510.653" width="513.402px" xml:space="preserve" xmlns="http://www.w3.org/2000/svg" xmlns:xlink="http://www.w3.org/1999/xlink"><g id="womens-tshirt"><g id="womens-tshirt_1_"><path d="M428.844,204.521l83.857-83.261    c0,0-115.551-120.76-141.123-120.76c-25.57,0-62.816,0-62.816,0v16.525c0,28.658-23.224,51.898-51.898,51.898    c-28.653,0-51.898-23.24-51.898-51.898V0.5c0,0-39.775,0-63.653,0C117.436,0.5,0.701,121.26,0.701,121.26l85.939,85.873    l26.756-26.404c0,0,29.775,45.383,6.795,131.199c-22.836,85.337-20.673,198.224-20.673,198.224h313.857    c0,0,4.408-112.888-20.877-197.357c-21.49-71.837,10.49-132.352,10.49-132.352L428.844,204.521z M384.498,170.678    c-1.47,2.78-35.695,68.989-12.021,148.107c17.796,59.418,20.224,135,20.265,170.47H120.477    c0.571-35.817,3.775-111.673,19.918-171.918c25.103-93.781-8.102-145.898-9.51-148.071l-14.001-21.327l-18.162,17.914    l-11.98,11.831l-56.633-56.586C75.885,74.873,127.824,27.52,143.15,21.398h41.04c2.265,38.112,34,68.423,72.674,68.423    s70.388-30.311,72.653-68.423h40.532c15.102,5.49,67.388,52.944,113.265,99.586l-54.939,54.547l-11.143-10.383l-19.979-18.592    L384.498,170.678z" style="fill:#231F20;stroke:#231F20;stroke-miterlimit:10;"/></g></g><g id="Layer_1"/></svg>